<svg width="20" height="20" viewBox="0 0 20 20" fill="none" xmlns="http://www.w3.org/2000/svg">
<g id="search">
<mask id="mask0_894_4944" style="mask-type:alpha" maskUnits="userSpaceOnUse" x="0" y="0" width="20" height="20">
<rect id="Bounding box" width="20" height="20" fill="#D9D9D9"/>
</mask>
<g mask="url(#mask0_894_4944)">
<path id="search_2" d="M16.4491 17.3269L11.2151 12.0929C10.7984 12.4369 10.3192 12.7061 9.77758 12.9006C9.23591 13.095 8.67555 13.1923 8.09649 13.1923C6.67219 13.1923 5.46676 12.6991 4.4802 11.7128C3.49364 10.7265 3.00037 9.52137 3.00037 8.09744C3.00037 6.67349 3.49352 5.46793 4.47982 4.48075C5.46613 3.49358 6.67126 3 8.0952 3C9.51913 3 10.7247 3.49328 11.7119 4.47983C12.699 5.46639 13.1926 6.67182 13.1926 8.09613C13.1926 8.69121 13.0927 9.25958 12.893 9.80125C12.6932 10.3429 12.4266 10.8141 12.0933 11.2147L17.3272 16.4487L16.4491 17.3269ZM8.09649 11.9423C9.17021 11.9423 10.0797 11.5697 10.8249 10.8245C11.5701 10.0793 11.9427 9.16985 11.9427 8.09613C11.9427 7.0224 11.5701 6.11295 10.8249 5.36775C10.0797 4.62256 9.17021 4.24996 8.09649 4.24996C7.02277 4.24996 6.11331 4.62256 5.36812 5.36775C4.62294 6.11295 4.25035 7.0224 4.25035 8.09613C4.25035 9.16985 4.62294 10.0793 5.36812 10.8245C6.11331 11.5697 7.02277 11.9423 8.09649 11.9423Z" fill="black"/>
</g>
</g>
</svg>
