<svg width="20" height="20" viewBox="0 0 20 20" fill="none" xmlns="http://www.w3.org/2000/svg">
<g id="add_circle">
<mask id="mask0_470_25273" style="mask-type:alpha" maskUnits="userSpaceOnUse" x="0" y="0" width="20" height="20">
<rect id="Bounding box" width="20" height="20" fill="#D9D9D9"/>
</mask>
<g mask="url(#mask0_470_25273)">
<path id="add_circle_2" d="M9.37516 13.9583H10.6251V10.625H13.9585V9.37504H10.6251V6.04171H9.37516V9.37504H6.04183V10.625H9.37516V13.9583ZM10.0015 17.9167C8.90659 17.9167 7.8774 17.7089 6.91395 17.2933C5.9505 16.8778 5.11243 16.3138 4.39975 15.6015C3.68705 14.8891 3.12284 14.0514 2.7071 13.0884C2.29136 12.1253 2.0835 11.0964 2.0835 10.0014C2.0835 8.90647 2.29127 7.87728 2.70683 6.91383C3.12239 5.95037 3.68634 5.11231 4.3987 4.39963C5.11108 3.68693 5.94878 3.12272 6.91181 2.70698C7.87482 2.29124 8.9038 2.08337 9.99875 2.08337C11.0937 2.08337 12.1229 2.29115 13.0863 2.70671C14.0498 3.12226 14.8879 3.68622 15.6005 4.39858C16.3132 5.11096 16.8774 5.94866 17.2932 6.91169C17.7089 7.8747 17.9168 8.90368 17.9168 9.99863C17.9168 11.0936 17.709 12.1228 17.2935 13.0862C16.8779 14.0497 16.3139 14.8877 15.6016 15.6004C14.8892 16.3131 14.0515 16.8773 13.0885 17.2931C12.1255 17.7088 11.0965 17.9167 10.0015 17.9167ZM10.0001 16.6667C11.8613 16.6667 13.4376 16.0209 14.7293 14.7292C16.021 13.4375 16.6668 11.8611 16.6668 10C16.6668 8.13891 16.021 6.56252 14.7293 5.27085C13.4376 3.97919 11.8613 3.33335 10.0001 3.33335C8.13903 3.33335 6.56264 3.97919 5.27098 5.27085C3.97931 6.56252 3.33348 8.13891 3.33348 10C3.33348 11.8611 3.97931 13.4375 5.27098 14.7292C6.56264 16.0209 8.13903 16.6667 10.0001 16.6667Z" fill="#0D1282"/>
</g>
</g>
</svg>
