<svg width="24" height="25" viewBox="0 0 24 25" fill="none" xmlns="http://www.w3.org/2000/svg">
<mask id="mask0_397_1506" style="mask-type:alpha" maskUnits="userSpaceOnUse" x="0" y="0" width="24" height="25">
<rect y="0.52002" width="24" height="24" fill="#845EC2"/>
</mask>
<g mask="url(#mask0_397_1506)">
<path d="M12 16.1642L15.6442 12.52L12 8.87583L10.9558 9.92003L12.8058 11.7701H8.25003V13.27H12.8058L10.9558 15.12L12 16.1642ZM12.0017 22.02C10.6877 22.02 9.45271 21.7707 8.29658 21.272C7.14043 20.7733 6.13475 20.0966 5.27953 19.2418C4.4243 18.3869 3.74724 17.3817 3.24836 16.226C2.74947 15.0704 2.50003 13.8356 2.50003 12.5217C2.50003 11.2078 2.74936 9.97273 3.24803 8.8166C3.7467 7.66045 4.42345 6.65477 5.27828 5.79955C6.13313 4.94432 7.13837 4.26726 8.29401 3.76838C9.44962 3.26949 10.6844 3.02005 11.9983 3.02005C13.3123 3.02005 14.5473 3.26938 15.7034 3.76805C16.8596 4.26672 17.8653 4.94347 18.7205 5.7983C19.5757 6.65315 20.2528 7.65839 20.7517 8.81403C21.2505 9.96964 21.5 11.2044 21.5 12.5184C21.5 13.8323 21.2506 15.0673 20.752 16.2235C20.2533 17.3796 19.5766 18.3853 18.7217 19.2405C17.8669 20.0957 16.8616 20.7728 15.706 21.2717C14.5504 21.7706 13.3156 22.02 12.0017 22.02Z" fill="white"/>
</g>
</svg>
