<svg xmlns="http://www.w3.org/2000/svg" width="15" height="16" viewBox="0 0 15 16" fill="none">
  <path d="M3.0064 6.2222L6.67944 0L10.3525 6.2222H3.0064ZM11.1757 15.4472C10.2914 15.4472 9.5411 15.1313 8.92465 14.4994C8.30821 13.8676 7.99998 13.0985 7.99998 12.1921C7.99998 11.3 8.30821 10.5332 8.92465 9.89163C9.5411 9.25008 10.2914 8.92931 11.1757 8.92931C12.046 8.92931 12.7941 9.25008 13.42 9.89163C14.046 10.5332 14.3589 11.3 14.3589 12.1921C14.3589 13.0985 14.046 13.8676 13.42 14.4994C12.7941 15.1313 12.046 15.4472 11.1757 15.4472ZM-1.52588e-05 14.9347V9.44181H5.3589V14.9347H-1.52588e-05Z" fill="#505050"/>
</svg>