<svg width="350" height="350" viewBox="0 0 350 350" fill="none" xmlns="http://www.w3.org/2000/svg">
<path d="M189.906 0L175 175L160.102 0H189.906Z" fill="#EBEBEB"/>
<path d="M100.409 15.9855L175 175L74.5991 30.8914L100.409 15.9855Z" fill="#EBEBEB"/>
<path d="M30.8991 74.5836L175 175L15.9932 100.401L30.8991 74.5836Z" fill="#EBEBEB"/>
<path d="M0 160.094L175 175L0 189.898V160.094Z" fill="#EBEBEB"/>
<path d="M15.9854 249.591L175 175L30.8913 275.401L15.9854 249.591Z" fill="#EBEBEB"/>
<path d="M74.5835 319.101L175 175L100.401 334.007L74.5835 319.101Z" fill="#EBEBEB"/>
<path d="M160.094 350L175 175L189.898 350H160.094Z" fill="#EBEBEB"/>
<path d="M249.591 334.014L175 175L275.401 319.109L249.591 334.014Z" fill="#EBEBEB"/>
<path d="M319.101 275.409L175 175L334.007 249.599L319.101 275.409Z" fill="#EBEBEB"/>
<path d="M350 189.906L175 175L350 160.102V189.906Z" fill="#EBEBEB"/>
<path d="M334.014 100.409L175 175L319.109 74.599L334.014 100.409Z" fill="#EBEBEB"/>
<path d="M275.409 30.8991L175 175L249.599 15.9932L275.409 30.8991Z" fill="#EBEBEB"/>
<path opacity="0.5" d="M175 34.8705C183.216 48.4903 196.064 58.6936 211.191 63.6108C226.318 68.528 242.71 67.8298 257.364 61.644C256.009 77.49 260.408 93.2938 269.754 106.161C279.101 119.028 292.77 128.098 308.259 131.709C297.848 143.732 292.118 159.104 292.118 175.008C292.118 190.912 297.848 206.283 308.259 218.307C292.77 221.917 279.101 230.987 269.754 243.854C260.408 256.722 256.009 272.525 257.364 288.371C242.712 282.184 226.321 281.484 211.195 286.398C196.068 291.312 183.218 301.512 175 315.13C166.784 301.51 153.936 291.306 138.809 286.389C123.682 281.472 107.29 282.17 92.6357 288.356C93.9909 272.51 89.5924 256.706 80.2457 243.839C70.8989 230.972 57.2296 221.902 41.7412 218.291C52.1517 206.268 57.8818 190.896 57.8818 174.992C57.8818 159.088 52.1517 143.717 41.7412 131.693C57.2296 128.083 70.8989 119.013 80.2457 106.146C89.5924 93.2783 93.9909 77.4745 92.6357 61.6286C107.288 67.8157 123.679 68.5163 138.805 63.602C153.932 58.6877 166.782 48.4876 175 34.8705Z" fill="#09215B"/>
<path d="M216.841 53.1617C222.926 82.2563 250.817 103.131 280.436 100.725H280.93L280.729 101.18C271.869 120.975 274.823 145.296 288.186 162.369C292.235 167.882 298.982 173.527 303.786 176.666L304.041 177.606C291.535 184.903 282.074 196.459 277.391 210.159C272.709 223.86 273.116 238.788 278.539 252.213L278.948 253.223L277.861 253.115C248.558 249.869 220.327 269.718 213.448 298.35L213.163 299.491L212.276 298.72C190.523 278.902 156.03 278.347 133.621 297.455L133.675 297.409L132.356 296.862C126.403 268.461 99.2674 247.463 69.5635 249.715L68.3836 249.8L68.8617 248.712C77.7683 229.056 74.8688 204.843 61.6131 187.793C57.2518 182.098 51.9057 177.23 45.8281 173.419L46.1828 173.519L45.8513 172.293C58.3753 165.031 67.8664 153.503 72.5887 139.818C77.3109 126.132 76.9488 111.204 71.5684 97.7637L71.2522 96.9926L72.0928 97.0774C101.496 100.424 129.881 80.5136 136.922 51.7968L137.045 51.3109L137.415 51.6502C159.307 71.7536 194.139 72.4013 216.841 53.1925V53.1617ZM216.841 53.1617C194.178 72.6249 159.169 72.1006 137.045 52.0589L137.245 52.1361L137.538 51.9047C132.464 73.3035 114.998 90.947 93.7075 96.3449C86.6363 98.2015 79.2896 98.7761 72.0157 98.0414L72.5786 97.5401C77.9765 110.063 78.524 126.65 73.7353 140.199C68.972 154.197 59.3174 166.007 46.5453 173.458L46.6764 173.35L46.2137 172.224L46.1443 172.062L46.5607 172.324C72.2547 188.071 82.611 221.838 70.1958 249.283L70.2575 248.998L69.4864 248.28C99.5604 245.913 127.815 267.165 133.906 296.692L133.945 296.862L132.634 296.314C155.567 276.712 190.97 277.313 213.248 297.656L212.77 297.471L212.076 298.018C219.147 268.715 248.08 248.465 278.015 251.82L277.29 252.475L277.336 252.722C268.931 232.341 272.787 207.704 286.937 190.816C291.57 185.213 297.16 180.477 303.447 176.828L303.802 177.691L303.856 177.815L303.539 177.614C278.007 161.875 267.72 128.262 280.197 100.956V101.072L280.521 101.373C250.694 103.563 222.764 82.4646 216.841 53.1617Z" fill="#09215B"/>
<path d="M277.799 175C277.836 196.718 270.96 217.884 258.166 235.433C247.827 249.665 234.009 261.006 218.035 268.37C202.06 275.735 184.463 278.878 166.926 277.498C149.39 276.118 132.501 270.261 117.874 260.488C103.248 250.715 91.3746 237.353 83.389 221.679C75.4034 206.005 71.573 188.545 72.2642 170.968C72.9555 153.391 78.1453 136.285 87.3372 121.287C96.5291 106.289 109.416 93.9 124.764 85.3058C140.112 76.7116 157.409 72.1994 175 72.2008C177.822 72.2008 180.614 72.3139 183.374 72.5401C199.299 73.8067 214.705 78.7905 228.354 87.0913C238.885 93.5026 248.184 101.745 255.814 111.428C258.113 114.353 260.255 117.398 262.23 120.551C272.436 136.875 277.833 155.747 277.799 175Z" fill="#09215B"/>
<g opacity="0.05">
<path d="M262.23 120.574C260.258 117.418 258.113 114.372 255.807 111.451C248.183 101.758 238.885 93.5081 228.354 87.0913C214.708 78.7799 199.302 73.7855 183.374 72.5093C180.614 72.2934 177.815 72.1777 175 72.1777C157.413 72.1795 140.12 76.6933 124.776 85.2876C109.432 93.8818 96.5489 106.269 87.3596 121.265C78.1704 136.26 72.982 153.362 72.2906 170.936C71.5993 188.51 75.4282 205.967 83.411 221.638C91.3938 237.309 103.264 250.67 117.885 260.443C132.507 270.216 149.392 276.074 166.924 277.458C184.457 278.841 202.051 275.703 218.025 268.344C233.998 260.985 247.817 249.651 258.159 235.426C270.198 218.855 277.016 199.067 277.74 178.597C278.464 158.127 273.061 137.907 262.222 120.527L262.23 120.574ZM253.401 216.919C244.327 229.407 232.202 239.359 218.183 245.822C204.165 252.285 188.723 255.043 173.334 253.832C157.945 252.622 143.124 247.483 130.288 238.908C117.453 230.332 107.032 218.607 100.023 204.853C93.0143 191.1 89.6514 175.778 90.2562 160.353C90.861 144.929 95.4133 129.917 103.478 116.754C111.542 103.592 122.849 92.7185 136.316 85.1744C149.784 77.6304 164.961 73.6679 180.398 73.666C182.873 73.666 185.333 73.7662 187.755 73.959C201.73 75.0809 215.247 79.4652 227.221 86.7598C236.473 92.3809 244.643 99.6154 251.342 108.12C263.481 123.559 270.251 142.537 270.624 162.173C270.997 181.809 264.953 201.03 253.408 216.919H253.401Z" fill="white"/>
</g>
<path d="M227.892 152.229C228.732 148.373 235.364 146.476 242.713 148.057C250.062 149.638 255.336 154.079 254.496 157.966C253.655 161.852 247.023 163.718 239.675 162.138C232.326 160.557 227.059 156.115 227.892 152.229Z" fill="#FF9CBD"/>
<path d="M110.319 162.141C117.667 160.557 122.944 156.12 122.105 152.231C121.267 148.343 114.63 146.476 107.282 148.06C99.9344 149.645 94.6576 154.082 95.4961 157.97C96.3347 161.858 102.971 163.726 110.319 162.141Z" fill="#FF9CBD"/>
<path d="M142.15 115.168C136.641 114.937 131.194 116.392 126.534 119.34C124.918 120.374 123.393 121.546 121.977 122.841C123.373 114.297 135.449 109.554 142.15 115.13V115.168Z" fill="white"/>
<path d="M207.85 115.168C214.551 109.554 226.627 114.297 228.023 122.879C226.607 121.584 225.082 120.413 223.465 119.378C218.806 116.431 213.359 114.975 207.85 115.207V115.168Z" fill="white"/>
<path d="M190.546 131.647C190.453 132.172 188.85 140.068 183.498 146.013C181.99 147.836 179.948 149.138 177.66 149.738C173.265 150.725 169.479 148.797 166.487 145.759C163.099 142.118 160.681 137.685 159.454 132.866C159.454 132.866 166.973 140.577 176.465 139.335C185.588 138.102 190.276 132.179 190.546 131.647Z" fill="white"/>
<path d="M183.482 146.013C181.975 147.836 179.933 149.138 177.645 149.738C173.249 150.725 169.463 148.797 166.471 145.759C168.846 142.775 172.301 140.824 176.28 141.363C177.744 141.575 179.146 142.1 180.389 142.902C181.632 143.705 182.687 144.766 183.482 146.013Z" fill="#FF9CBD"/>
<path d="M122.394 147.155C122.663 141.811 124.668 135.788 129.457 132.619C134.624 129.241 141.757 130.876 145.473 135.595C147.816 138.438 149.274 141.904 149.668 145.566C148.177 142.479 146.151 139.68 143.684 137.3C140.345 134.061 135.125 132.827 130.999 135.156C126.65 137.731 124.491 142.512 122.394 147.155Z" fill="white"/>
<path d="M200.332 145.566C200.925 140.214 203.933 134.539 209.045 132.025C211.754 130.713 214.86 130.474 217.737 131.357C220.615 132.239 223.053 134.178 224.56 136.783C226.449 139.923 227.511 143.492 227.645 147.155C226.374 143.963 224.675 140.959 222.594 138.225C221.227 136.357 219.275 134.999 217.048 134.366C214.822 133.734 212.448 133.862 210.302 134.732C205.675 136.737 202.761 141.032 200.37 145.566H200.332Z" fill="white"/>
<path opacity="0.1" d="M94.0315 151.928C102.699 143.769 116.965 141.51 126.419 149.715C129.394 152.227 131.806 155.338 133.498 158.845C131.06 156 128.287 153.46 125.239 151.28C115.654 144.494 103.856 146.653 94.0469 151.928H94.0315Z" fill="white"/>
<path opacity="0.1" d="M255.969 151.928C246.16 146.661 234.377 144.494 224.776 151.28C221.729 153.46 218.955 156 216.518 158.845C218.205 155.339 220.612 152.228 223.581 149.715C233.02 141.51 247.286 143.769 255.969 151.928Z" fill="white"/>
<path opacity="0.1" d="M160.703 160.618C167.142 165.585 175.355 169.101 183.066 165.014C185.547 163.739 187.875 162.187 190.006 160.387C188.54 162.925 186.515 165.096 184.084 166.734C176.141 172.255 165.577 168.276 160.749 160.626L160.703 160.618Z" fill="white"/>
<g opacity="0.2">
<path d="M215.137 103.786C219.802 110.403 236.868 109.955 237.708 102.753C238.402 96.8307 232.611 92.0882 228.416 90.5537C224.221 89.0192 218.037 89.3276 215.407 93.2064C213.178 96.4837 213.418 101.365 215.137 103.786Z" fill="white"/>
<path d="M239.829 108.768C237.176 110.225 238.055 115.962 240.854 117.412C243.654 118.862 247.255 115.77 247.077 113.379C246.9 110.989 242.227 107.449 239.829 108.768Z" fill="white"/>
</g>
<path d="M333.22 81.7397H219.24C219.24 81.7397 230.521 50.8482 247.933 50.8482C265.346 50.8482 270.774 72.1468 270.774 72.1468C270.774 72.1468 282.511 60.5799 292.15 60.5799C301.789 60.5799 310.171 75.8791 310.171 75.8791C310.171 75.8791 323.828 67.6743 333.22 81.7397Z" fill="white"/>
<path d="M333.22 81.7396C333.158 81.7396 219.186 81.8168 219.093 81.8245C221.454 75.7097 224.512 69.8877 228.208 64.4741C233.559 56.6317 242.026 48.6582 252.282 51.2723C261.991 53.4161 268.476 63.3251 270.79 72.1391C276.619 66.8646 283.945 61.0348 292.088 60.5722C300.131 60.7727 306.447 69.5944 310.24 75.8868C318.792 71.26 328.038 73.504 333.305 81.7396H333.22ZM333.22 81.7396C327.946 73.5194 318.707 71.26 310.179 75.9176C306.416 69.6715 300.062 60.8421 292.065 60.657C283.953 61.1274 276.642 66.9648 270.843 72.2239C268.052 63.5179 262.153 53.5395 252.259 51.4034C245.651 49.7609 239.335 52.5293 234.631 57.1406C232.295 59.3897 230.199 61.8758 228.377 64.5589C224.716 69.922 221.686 75.6897 219.348 81.7474C218.808 81.4389 333.359 81.8245 333.251 81.7474L333.22 81.7396Z" fill="white"/>
<path d="M87.2997 136.228H34.0378C34.0378 136.228 45.9364 118.985 55.3133 118.985C64.6902 118.985 67.4586 130.483 67.4586 130.483C67.4586 130.483 74.0749 125.085 80.213 126.072C86.3512 127.059 87.2997 136.228 87.2997 136.228Z" fill="white"/>
<path d="M87.2994 136.228C87.23 136.104 33.5363 136.552 33.9682 136.181C36.1936 133.037 38.6555 130.068 41.3325 127.298C44.0314 124.56 46.9463 121.946 50.4163 120.219C58.6212 115.978 65.677 122.856 67.4352 130.452C76.2877 123.974 85.4719 123.304 87.2994 136.228ZM87.2994 136.228C85.4256 123.334 76.2954 124.028 67.4891 130.514C65.5459 124.19 60.7803 117.643 53.1616 119.348C48.5348 120.643 44.8102 124.082 41.4635 127.429C38.7955 130.193 36.3341 133.149 34.0993 136.274C33.5518 135.935 87.4151 136.336 87.3072 136.228H87.2994Z" fill="white"/>
<path d="M307.819 216.818H254.557C254.557 216.818 266.456 199.576 275.833 199.576C285.21 199.576 287.978 211.073 287.978 211.073C287.978 211.073 294.602 205.675 300.733 206.663C306.863 207.65 307.819 216.818 307.819 216.818Z" fill="white"/>
<path d="M307.819 216.818C307.75 216.695 254.056 217.142 254.488 216.772C256.716 213.627 259.177 210.655 261.852 207.881C264.551 205.151 267.474 202.529 270.936 200.81C279.141 196.568 286.197 203.447 287.955 211.043C296.815 204.557 305.992 203.894 307.819 216.818ZM307.819 216.818C305.945 203.925 296.831 204.619 288.009 211.104C286.066 204.773 281.3 198.234 273.681 199.938C269.055 201.234 265.33 204.673 261.991 208.012C259.318 210.777 256.854 213.736 254.619 216.865C254.072 216.525 307.935 216.926 307.827 216.818H307.819Z" fill="white"/>
<path d="M171.916 302.506H118.708C118.708 302.506 130.583 285.271 139.96 285.271C149.337 285.271 152.113 296.769 152.113 296.769C152.113 296.769 158.729 291.371 164.86 292.358C170.99 293.345 171.916 302.506 171.916 302.506Z" fill="white"/>
<path d="M171.916 302.506C171.846 302.383 118.16 302.83 118.584 302.46C120.812 299.318 123.274 296.348 125.949 293.576C128.648 290.839 131.57 288.217 135.032 286.498C143.237 282.256 150.301 289.135 152.051 296.73C160.912 290.253 170.088 289.582 171.916 302.506ZM171.916 302.506C170.049 289.613 160.927 290.307 152.105 296.792C150.162 290.461 145.396 283.922 137.778 285.626C133.151 286.922 129.426 290.361 126.087 293.708C123.417 296.47 120.956 299.426 118.723 302.552C118.168 302.213 172.031 302.614 171.931 302.506H171.916Z" fill="white"/>
<path d="M143.075 274.653H16.7798C16.7798 274.653 34.0762 236.043 52.5756 233.606C71.075 231.169 79.9275 262.299 79.9275 262.299C79.9275 262.299 91.8569 251.342 101.249 251.342C110.642 251.342 117.867 265.824 117.867 265.824C117.867 265.824 136.636 255.884 143.075 274.653Z" fill="white"/>
<path d="M143.075 274.653C142.998 274.537 16.4251 274.954 16.7104 274.653C23.1494 261.297 33.1509 243.26 46.2678 235.742C54.2721 231.115 62.7237 233.937 68.4995 240.592C73.8357 246.676 77.753 254.796 79.8967 262.315C82.8503 259.68 86.0526 257.337 89.4587 255.321C92.8594 253.362 96.5763 251.612 100.54 251.373C108.482 250.964 114.42 259.631 117.89 265.824C128.401 260.78 139.204 262.662 143.106 274.692L143.075 274.653ZM143.075 274.653C139.166 262.646 128.362 260.773 117.883 265.824C114.466 259.655 108.475 251.002 100.578 251.419C96.6225 251.658 92.9211 253.408 89.5359 255.375C86.1372 257.389 82.9426 259.729 79.997 262.361L79.9353 262.415V262.338C78.7229 258.401 77.175 254.575 75.3085 250.902C69.8566 239.86 59.4464 228.632 46.4066 235.865C33.4131 243.322 23.3344 261.436 16.9186 274.692C16.4174 274.368 143.222 274.769 143.137 274.692L143.075 274.653Z" fill="white"/>
<path d="M52.0356 42.0034C52.9689 41.5293 53.9323 41.1171 54.9197 40.7696C55.93 40.3945 56.9852 40.1534 58.0582 40.0524C58.3885 40.0277 58.7205 40.0643 59.0375 40.1604C59.1441 40.1949 59.2454 40.2442 59.3382 40.3069C59.4153 40.3532 59.4616 40.3994 59.531 40.4457C59.6494 40.5317 59.7626 40.6243 59.8703 40.7233C60.2718 41.0875 60.6529 41.4736 61.0116 41.88C61.721 42.6511 62.3456 43.4994 62.978 44.3553L62.2068 44.0777C63.2603 43.7822 64.3319 43.5555 65.4147 43.3991C65.9699 43.3291 66.5286 43.2905 67.0881 43.2835C67.3872 43.2853 67.686 43.3059 67.9826 43.3451C68.3224 43.3913 68.6484 43.5097 68.9388 43.6922C69.4238 44.0295 69.8531 44.4406 70.2112 44.9105C70.5472 45.331 70.8612 45.7685 71.1519 46.2215C71.7222 47.1373 72.2198 48.0965 72.6402 49.0901C71.9539 48.265 71.2907 47.4321 70.5813 46.6533C70.2413 46.2595 69.8809 45.8837 69.5017 45.5274C69.1675 45.1939 68.7886 44.9084 68.3759 44.6792C67.9714 44.5447 67.5419 44.5025 67.1189 44.5558C66.6142 44.5933 66.1121 44.6602 65.6152 44.7563C64.6128 44.9414 63.5794 45.1882 62.5924 45.458L62.0989 45.5969L61.8136 45.1882C61.2352 44.3553 60.6106 43.5379 59.986 42.7514C59.6833 42.3485 59.359 41.9623 59.0144 41.5947C58.9379 41.5117 58.8554 41.4343 58.7676 41.3633L58.6519 41.2631C58.6447 41.2597 58.6368 41.2579 58.6288 41.2579C58.6208 41.2579 58.6129 41.2597 58.6057 41.2631C58.4312 41.1941 58.2457 41.1575 58.0582 41.1551C57.0615 41.1505 56.0669 41.2461 55.0893 41.4405C54.0791 41.5947 53.0612 41.8183 52.0356 42.0034Z" fill="white"/>
<path d="M60.1018 73.4963C61.3266 72.5274 62.6147 71.6412 63.9575 70.8436C65.3288 69.9869 66.81 69.3202 68.3606 68.8618C68.8365 68.7267 69.3335 68.6823 69.8257 68.7307C69.9912 68.7564 70.1539 68.7977 70.3116 68.8541L70.6354 69.0006C70.8513 69.1009 71.021 69.2088 71.2138 69.3091C71.9083 69.7282 72.5801 70.1838 73.2264 70.674C74.4988 71.6379 75.6709 72.6712 76.843 73.7585L75.6169 73.5811C77.0821 72.8391 78.5972 72.2001 80.1512 71.6687C80.9451 71.3934 81.7566 71.1719 82.5802 71.0056C83.0168 70.912 83.4605 70.8553 83.9066 70.8359C84.1632 70.8155 84.421 70.8155 84.6777 70.8359C84.9387 70.8829 85.1964 70.9473 85.4488 71.0287C86.2554 71.3844 87.002 71.8631 87.662 72.4476C88.302 72.9874 88.8803 73.558 89.451 74.1363C90.5564 75.3164 91.5696 76.5796 92.4815 77.9149C91.2246 76.897 90.0062 75.8714 88.7338 74.9383C88.12 74.4583 87.4817 74.0104 86.8214 73.5966C86.2312 73.189 85.5877 72.8646 84.909 72.6326C84.2758 72.5583 83.6341 72.6215 83.0275 72.8177C82.2974 73.0295 81.5814 73.2871 80.8837 73.5888C79.4571 74.1518 78.0151 74.8149 76.6425 75.5012L75.9562 75.8405L75.4164 75.3239C74.3291 74.2751 73.1724 73.2573 72.0235 72.2856C71.4642 71.8028 70.8799 71.3498 70.273 70.9284C70.1265 70.8359 69.98 70.728 69.8412 70.6586L69.6484 70.5506C69.6484 70.5506 69.6484 70.5506 69.5713 70.5506C69.2908 70.4995 69.0035 70.4995 68.723 70.5506C67.2603 70.8388 65.8294 71.2702 64.451 71.8384C62.9704 72.3165 61.5438 72.918 60.1018 73.4963Z" fill="white"/>
<path d="M307.31 306.323C308.152 305.7 309.036 305.135 309.955 304.634C310.889 304.089 311.893 303.674 312.94 303.401C313.26 303.325 313.592 303.309 313.919 303.354C314.027 303.37 314.133 303.399 314.235 303.439L314.451 303.547C314.59 303.617 314.705 303.694 314.829 303.763C315.285 304.059 315.725 304.378 316.147 304.719C316.973 305.39 317.69 306.1 318.461 306.84L317.643 306.701C318.642 306.229 319.672 305.83 320.728 305.506C321.264 305.341 321.81 305.21 322.363 305.113C322.659 305.066 322.958 305.041 323.257 305.035C323.421 305.021 323.587 305.021 323.751 305.035C323.913 305.035 324.09 305.136 324.26 305.182C324.792 305.436 325.281 305.772 325.709 306.177C326.114 306.543 326.497 306.932 326.858 307.341C327.57 308.152 328.22 309.016 328.802 309.924C327.992 309.223 327.198 308.513 326.373 307.858C325.972 307.526 325.555 307.214 325.123 306.925C324.738 306.642 324.315 306.413 323.866 306.246C323.444 306.18 323.013 306.206 322.602 306.323C322.113 306.445 321.632 306.594 321.16 306.771C320.196 307.118 319.224 307.542 318.291 307.958L317.821 308.174L317.474 307.812C316.772 307.094 316.016 306.385 315.276 305.714C314.913 305.38 314.532 305.066 314.135 304.773L313.857 304.58L313.726 304.503C313.726 304.503 313.726 304.503 313.672 304.503C313.489 304.47 313.3 304.47 313.117 304.503C312.133 304.665 311.166 304.923 310.233 305.275C309.261 305.591 308.297 305.969 307.31 306.323Z" fill="white"/>
<path d="M259.416 285.534C260.299 284.238 261.274 283.006 262.33 281.848C263.386 280.623 264.603 279.547 265.947 278.647C266.362 278.376 266.825 278.188 267.312 278.092C267.476 278.075 267.641 278.075 267.805 278.092L268.16 278.138C268.391 278.138 268.584 278.223 268.8 278.262C269.584 278.454 270.357 278.691 271.114 278.971C272.617 279.511 274.036 280.151 275.478 280.822L274.252 281.015C275.425 279.872 276.674 278.81 277.992 277.838C278.671 277.339 279.382 276.886 280.12 276.481C280.513 276.267 280.92 276.081 281.339 275.925C281.57 275.846 281.807 275.784 282.048 275.74C282.304 275.707 282.561 275.691 282.819 275.694C283.694 275.79 284.548 276.024 285.349 276.388C286.105 276.712 286.844 277.075 287.562 277.475C288.966 278.271 290.306 279.173 291.572 280.174C290.076 279.581 288.603 278.964 287.114 278.447C286.343 278.177 285.634 277.923 284.894 277.73C284.206 277.518 283.492 277.401 282.773 277.383C282.143 277.509 281.548 277.773 281.03 278.154C280.398 278.563 279.79 279.008 279.21 279.488C278.007 280.452 276.835 281.516 275.725 282.572L275.17 283.105L274.499 282.773C273.149 282.094 271.746 281.47 270.358 280.876C269.68 280.585 268.987 280.327 268.284 280.105C268.122 280.105 267.944 280.005 267.79 279.981L267.574 279.935C267.574 279.935 267.574 279.935 267.489 279.935C267.22 279.972 266.959 280.056 266.718 280.182C265.406 280.895 264.166 281.735 263.017 282.688C261.814 283.552 260.634 284.547 259.416 285.534Z" fill="white"/>
<path d="M21.1985 60.5568C22.0825 59.2613 23.0565 58.0296 24.1134 56.8708C25.1644 55.6448 26.3757 54.5658 27.7145 53.6629C28.1307 53.3993 28.5901 53.2113 29.0717 53.1077C29.2382 53.0875 29.4065 53.0875 29.5729 53.1077C29.7118 53.1077 29.8043 53.1077 29.9277 53.1539C30.1433 53.1824 30.357 53.2236 30.5677 53.2773C31.3517 53.4667 32.1241 53.701 32.8811 53.979C34.4233 54.5188 35.8037 55.1589 37.2457 55.8298L36.0196 56.0303C37.1921 54.8846 38.4417 53.8205 39.7596 52.8455C40.4403 52.3496 41.1511 51.8964 41.8879 51.4883C42.2881 51.2644 42.7059 51.0736 43.1371 50.9177C43.368 50.8342 43.6052 50.7698 43.8465 50.7249C44.1022 50.6914 44.3599 50.6759 44.6177 50.6786C45.494 50.7779 46.3498 51.012 47.1547 51.3726C47.9076 51.6978 48.6437 52.0607 49.3601 52.4599C50.7678 53.2561 52.1111 54.161 53.3777 55.1666C51.8817 54.5728 50.4089 53.9559 48.9206 53.4315C48.1931 53.1567 47.4518 52.9199 46.6997 52.7221C46.0195 52.5139 45.3135 52.4023 44.6023 52.3905C43.9716 52.5161 43.3765 52.7794 42.8595 53.1617C42.2254 53.5705 41.6176 54.0186 41.0396 54.5034C39.8367 55.4596 38.6646 56.5238 37.5541 57.5879L36.9989 58.12L36.328 57.7807C34.9786 57.1098 33.5674 56.4775 32.1871 55.8914C31.5103 55.5966 30.8178 55.3392 30.1127 55.1203C29.9508 55.0741 29.7734 55.0201 29.6192 54.9892L29.4033 54.943C29.4033 54.943 29.4033 54.943 29.3185 54.943C29.048 54.9798 28.7866 55.0661 28.5473 55.1974C27.2336 55.9053 25.9937 56.7422 24.8459 57.6959C23.5967 58.5596 22.4169 59.5697 21.1985 60.5568Z" fill="white"/>
</svg>
