<svg width="27" height="40" viewBox="0 0 27 40" fill="none" xmlns="http://www.w3.org/2000/svg">
<g id="&#240;&#159;&#166;&#134; illustration &#34;location map pin&#34;">
<path id="Vector" d="M8.20894 3.46792C7.94443 3.46792 7.68587 3.38949 7.46594 3.24254C7.24602 3.09559 7.0746 2.88672 6.97338 2.64235C6.87216 2.39798 6.84568 2.12909 6.89728 1.86966C6.94888 1.61024 7.07625 1.37195 7.26329 1.18492C7.45032 0.997883 7.68861 0.870513 7.94803 0.81891C8.20745 0.767308 8.47635 0.793792 8.72072 0.895014C8.96509 0.996235 9.17396 1.16765 9.32091 1.38757C9.46786 1.6075 9.54629 1.86606 9.54629 2.13057C9.54585 2.48512 9.4048 2.82502 9.1541 3.07573C8.90339 3.32643 8.56349 3.46748 8.20894 3.46792ZM8.20894 1.80572C8.14469 1.80572 8.08188 1.82477 8.02846 1.86047C7.97504 1.89616 7.93341 1.9469 7.90882 2.00626C7.88423 2.06561 7.8778 2.13093 7.89033 2.19394C7.90287 2.25696 7.93381 2.31484 7.97924 2.36027C8.02467 2.4057 8.08255 2.43664 8.14556 2.44917C8.20858 2.46171 8.27389 2.45527 8.33325 2.43069C8.39261 2.4061 8.44334 2.36446 8.47904 2.31104C8.51473 2.25762 8.53378 2.19482 8.53378 2.13057C8.53378 2.08791 8.52538 2.04567 8.50906 2.00626C8.49273 1.96684 8.4688 1.93103 8.43864 1.90087C8.40847 1.8707 8.37266 1.84677 8.33325 1.83045C8.29384 1.81412 8.2516 1.80572 8.20894 1.80572Z" fill="#E7F6FF"/>
<path id="Vector_2" d="M10.595 3.4949C10.8541 3.4949 11.0642 3.28486 11.0642 3.02577C11.0642 2.76668 10.8541 2.55664 10.595 2.55664C10.336 2.55664 10.1259 2.76668 10.1259 3.02577C10.1259 3.28486 10.336 3.4949 10.595 3.4949Z" fill="#E7F6FF"/>
<path id="Vector_3" opacity="0.5" d="M17.3949 27.4973V28.5275C17.097 29.4751 16.6288 30.5838 16.0137 31.8064C15.7605 32.2915 15.4897 32.8037 15.1994 33.3302C15.3977 32.9927 15.5884 32.6628 15.7723 32.3337C15.558 32.7404 15.3311 33.1631 15.0914 33.5926V31.9895L15.1623 31.8553L15.0914 31.9819V31.9228C15.1983 31.7209 15.3024 31.524 15.4036 31.3322C16.071 30.0041 16.5663 28.8119 16.8583 27.8129C17.0397 27.7108 17.2185 27.6053 17.3949 27.4973Z" fill="#BBD2E5"/>
<path id="Vector_4" d="M21.8272 12.5349C21.817 17.2177 17.9779 21.0383 13.2968 21.0282C9.24251 21.0197 5.83205 18.1391 4.99926 14.3253C4.91323 13.8353 4.8706 13.3387 4.87185 12.8412C4.88198 8.16086 8.72107 4.3378 13.4014 4.34792C17.4514 4.35636 20.856 7.22935 21.6964 11.033C21.6961 11.035 21.6961 11.037 21.6964 11.0389C21.7843 11.5327 21.828 12.0333 21.8272 12.5349Z" fill="white"/>
<path id="Vector_5" d="M13.3879 0.527387C5.51482 0.510512 0.610059 5.46505 0.590652 13.2673C0.58559 15.6787 1.85629 19.4402 4.04331 23.983C5.03219 25.9009 6.23707 28.033 7.50271 30.1618C9.05691 32.7893 10.7537 35.4176 12.4513 37.8324L13.3002 38.9698C13.5845 38.6146 13.8689 38.2611 14.1532 37.8358C15.8618 35.3577 17.5687 32.807 19.1314 30.1871C20.413 28.0617 21.553 25.9363 22.5494 24.0235C24.8276 19.4891 26.1143 15.7327 26.1194 13.3213C26.1438 5.73252 21.0484 0.544262 13.3879 0.527387ZM13.3432 21.094C8.66203 21.0838 4.83981 17.2464 4.84994 12.5644C4.86006 7.88242 8.69916 4.06357 13.3803 4.0737C18.0615 4.08382 21.8837 7.92207 21.8736 12.6032C21.8635 17.2844 18.0244 21.1066 13.3432 21.094Z" fill="#F3AA9F"/>
<path id="Vector_6" d="M22.0668 25.1565C21.191 26.8162 20.2148 28.6024 19.1373 30.3878C17.5721 33.0077 15.8643 35.5584 14.1591 38.0365C13.8748 38.4583 13.5904 38.8153 13.3052 39.1705L12.4539 38.0339C10.7562 35.6191 9.05944 32.9908 7.50946 30.3642C6.23623 28.2329 5.03556 26.1024 4.05006 24.1854C1.85629 19.6409 0.58559 15.8786 0.590652 13.4671C0.597402 10.2473 1.43441 7.51355 2.97342 5.4126C2.36507 6.99717 2.04529 8.80197 2.03854 10.7915C2.03348 13.203 3.30418 16.9653 5.49119 21.5073C6.48008 23.4243 7.68074 25.5573 8.9506 27.6861C10.5048 30.3127 12.2016 32.941 13.8984 35.3559L14.7472 36.4932C15.0324 36.138 15.3167 35.7845 15.6011 35.3592C17.3089 32.8811 19.0166 30.3304 20.5793 27.7106C21.1024 26.8567 21.596 25.9994 22.0668 25.1565Z" fill="#E1978F"/>
<path id="Vector_7" d="M13.2858 40L11.9712 38.2374C10.2685 35.8158 8.54896 33.1504 6.99729 30.528C5.66838 28.303 4.46602 26.1548 3.51848 24.3188L3.51173 24.3044C1.17621 19.4579 -0.00504634 15.7648 1.62033e-05 13.3314C0.00845378 9.3328 1.26565 5.97211 3.62817 3.61044C5.99069 1.24876 9.34885 0 13.3457 0H13.3871C17.2979 0.00843757 20.6434 1.29939 23.054 3.73194C25.4646 6.16449 26.7243 9.4948 26.7167 13.3862C26.7117 15.8441 25.4511 19.6368 23.0844 24.3551V24.3626C22.195 26.0696 21.0011 28.3156 19.6486 30.5592C17.9729 33.3638 16.1799 36.0149 14.6476 38.2374C14.3565 38.6719 14.0629 39.0381 13.7794 39.3925L13.2858 40ZM12.9323 37.5531L13.3145 38.0653C13.4318 37.91 13.5482 37.748 13.6647 37.5742C15.1876 35.3534 16.9713 32.726 18.6302 29.9492C19.9667 27.7343 21.1479 25.5102 22.0297 23.8193C24.3179 19.268 25.5296 15.6601 25.5346 13.3845C25.5507 6.10121 20.667 1.19729 13.3845 1.18126H13.3457C5.85738 1.18126 1.19731 5.83374 1.18128 13.3314C1.17621 15.5547 2.34904 19.1685 4.57234 23.7838C5.50722 25.5971 6.69692 27.72 8.01571 29.9239C9.54882 32.5192 11.249 35.156 12.9323 37.5472V37.5531ZM13.3601 21.7529H13.3398C10.9251 21.7503 8.61038 20.7886 6.90476 19.0794C5.19914 17.3701 4.24238 15.0533 4.24496 12.6386C4.24753 10.224 5.20923 7.9092 6.91848 6.20358C8.62774 4.49797 10.9445 3.54121 13.3592 3.54378H13.3795C15.1798 3.54569 16.9391 4.08204 18.4343 5.08483C19.9295 6.08763 21.0933 7.51174 21.7783 9.17668C22.4633 10.8416 22.6386 12.6724 22.282 14.4371C21.9254 16.2018 21.0529 17.8209 19.7752 19.0892C18.9342 19.9338 17.9344 20.6038 16.8334 21.0605C15.7325 21.5173 14.552 21.7517 13.3601 21.7504V21.7529ZM13.3601 4.7301C11.2734 4.7493 9.27862 5.59112 7.80908 7.07266C6.33954 8.5542 5.51398 10.5558 5.51176 12.6425C5.50953 14.7293 6.33083 16.7326 7.79721 18.2173C9.26359 19.7019 11.2566 20.548 13.3432 20.5716H13.3609C15.4623 20.5738 17.4785 19.741 18.9659 18.2566C20.4533 16.7722 21.2901 14.7577 21.2922 12.6564C21.2944 10.555 20.4616 8.5388 18.9772 7.05139C17.4928 5.56398 15.4783 4.72717 13.3769 4.72504L13.3601 4.7301Z" fill="#426572"/>
<g id="Group">
<path id="Vector_8" d="M23.556 8.392C23.8009 8.98738 23.9918 9.60355 24.1264 10.2331C24.1551 10.3782 24.177 10.5208 24.2006 10.655C24.2243 10.7891 24.2504 10.9267 24.2589 11.0574L24.2935 11.4354C24.3027 11.5569 24.3171 11.6725 24.3154 11.7839C24.3154 12.0067 24.3196 12.2058 24.3154 12.3838C24.3112 12.5619 24.2901 12.712 24.2749 12.8352C24.2428 13.0824 24.2032 13.2175 24.1593 13.2175C24.1154 13.2175 24.069 13.0824 24.0234 12.842C23.9998 12.7213 23.9821 12.5745 23.9543 12.4049C23.9264 12.2353 23.891 12.0429 23.8589 11.8312C23.8454 11.7248 23.8184 11.6152 23.7965 11.5004L23.7273 11.1435C23.7079 11.0195 23.6691 10.8946 23.6429 10.7646C23.6168 10.6347 23.5822 10.5006 23.5467 10.3647C23.3867 9.77755 23.1909 9.20075 22.9603 8.63754C22.7207 8.07853 22.4445 7.53594 22.1334 7.0133L21.9183 6.66568L21.7023 6.34252C21.6348 6.2362 21.5631 6.13917 21.4947 6.04467C21.4264 5.95017 21.3631 5.85736 21.299 5.77129C20.7851 5.08448 20.4307 4.67441 20.4949 4.60438C20.559 4.53435 21.0205 4.83725 21.6466 5.47513C21.7251 5.55445 21.8018 5.64389 21.8837 5.73248C21.9655 5.82108 22.0524 5.91726 22.1309 6.02105C22.2094 6.12483 22.2997 6.22945 22.384 6.34083L22.6372 6.69436C22.9962 7.23004 23.3039 7.79845 23.556 8.392Z" fill="white"/>
<path id="Vector_9" d="M18.4943 2.72863C19.0562 3.05432 19.392 3.48379 19.2874 3.6247C19.1828 3.7656 18.6968 3.59179 18.1694 3.28719C17.6421 2.9826 17.254 2.65859 17.3173 2.4949C17.3805 2.33122 17.934 2.40125 18.4943 2.72863Z" fill="white"/>
</g>
</g>
</svg>
