<svg width="20" height="20" viewBox="0 0 20 20" fill="none" xmlns="http://www.w3.org/2000/svg">
<g id="location_searching">
<mask id="mask0_887_3212" style="mask-type:alpha" maskUnits="userSpaceOnUse" x="0" y="0" width="20" height="20">
<rect id="Bounding box" width="20" height="20" fill="#D9D9D9"/>
</mask>
<g mask="url(#mask0_887_3212)">
<path id="location_searching_2" d="M9.37474 18.5417V17.0994C7.63862 16.921 6.17708 16.2383 4.99011 15.0513C3.80315 13.8643 3.12046 12.4028 2.94205 10.6667H1.49976V9.41673H2.94205C3.12046 7.68062 3.80315 6.21907 4.99011 5.0321C6.17708 3.84514 7.63862 3.16246 9.37474 2.98404V1.54175H10.6247V2.98404C12.3608 3.16246 13.8223 3.84514 15.0093 5.0321C16.1963 6.21907 16.879 7.68062 17.0574 9.41673H18.4997V10.6667H17.0574C16.879 12.4028 16.1963 13.8643 15.0093 15.0513C13.8223 16.2383 12.3608 16.921 10.6247 17.0994V18.5417H9.37474ZM9.99971 15.875C11.6108 15.875 12.9858 15.3056 14.1247 14.1667C15.2636 13.0278 15.833 11.6528 15.833 10.0417C15.833 8.43059 15.2636 7.0556 14.1247 5.91671C12.9858 4.77782 11.6108 4.20837 9.99971 4.20837C8.3886 4.20837 7.0136 4.77782 5.87471 5.91671C4.73583 7.0556 4.16638 8.43059 4.16638 10.0417C4.16638 11.6528 4.73583 13.0278 5.87471 14.1667C7.0136 15.3056 8.3886 15.875 9.99971 15.875Z" fill="#09215B"/>
</g>
</g>
</svg>
