<svg width="24" height="25" viewBox="0 0 24 25" fill="none" xmlns="http://www.w3.org/2000/svg">
<g id="&#240;&#159;&#166;&#134; icon &#34;cash rupee major&#34;">
<path id="Vector" d="M24 12.5C24 5.8832 18.6168 0.5 12 0.5C5.3832 0.5 0 5.8832 0 12.5C0 19.1168 5.3832 24.5 12 24.5C18.6168 24.5 24 19.1168 24 12.5ZM11.4312 14.9744L13.9272 18.2876C14.0221 18.4134 14.0912 18.5567 14.1307 18.7093C14.1702 18.8618 14.1793 19.0207 14.1574 19.1767C14.1355 19.3328 14.083 19.483 14.0031 19.6188C13.9231 19.7546 13.8172 19.8733 13.6914 19.9682C13.5656 20.0631 13.4223 20.1322 13.2697 20.1717C13.1172 20.2112 12.9583 20.2203 12.8023 20.1984C12.6462 20.1765 12.496 20.1241 12.3602 20.0441C12.2244 19.9641 12.1057 19.8582 12.0108 19.7324L8.4 14.9408C8.23637 14.7236 8.15137 14.4573 8.15892 14.1854C8.16647 13.9136 8.26612 13.6524 8.44155 13.4446C8.61698 13.2368 8.85779 13.0948 9.12451 13.0418C9.39122 12.9888 9.66804 13.0279 9.9096 13.1528C10.1904 13.1972 10.5 13.22 10.842 13.22C11.6844 13.22 12.3312 12.6464 12.6336 11.738H8.9136C8.67491 11.738 8.44599 11.6432 8.2772 11.4744C8.10842 11.3056 8.0136 11.0767 8.0136 10.838C8.0136 10.5993 8.10842 10.3704 8.2772 10.2016C8.44599 10.0328 8.67491 9.938 8.9136 9.938H12.7884C12.6804 9.074 12.3144 8.3984 11.7756 8.042H9.2136C8.89534 8.042 8.59012 7.91557 8.36507 7.69053C8.14003 7.46549 8.0136 7.16026 8.0136 6.842C8.0136 6.52374 8.14003 6.21852 8.36507 5.99347C8.59012 5.76843 8.89534 5.642 9.2136 5.642H15.2136C15.5319 5.642 15.8371 5.76843 16.0621 5.99347C16.2872 6.21852 16.4136 6.52374 16.4136 6.842C16.4136 7.16026 16.2872 7.46549 16.0621 7.69053C15.8371 7.91557 15.5319 8.042 15.2136 8.042H14.0796C14.3592 8.6024 14.5356 9.2468 14.598 9.938H15.5136C15.7523 9.938 15.9812 10.0328 16.15 10.2016C16.3188 10.3704 16.4136 10.5993 16.4136 10.838C16.4136 11.0767 16.3188 11.3056 16.15 11.4744C15.9812 11.6432 15.7523 11.738 15.5136 11.738H14.4936C14.136 13.4264 13.0416 14.7212 11.4312 14.9744Z" fill="#0D1282"/>
</g>
</svg>
