<svg width="24" height="24" viewBox="0 0 24 24" fill="none" xmlns="http://www.w3.org/2000/svg">
<g id="search">
<mask id="mask0_882_1762" style="mask-type:alpha" maskUnits="userSpaceOnUse" x="0" y="0" width="24" height="24">
<rect id="Bounding box" width="24" height="24" fill="#D9D9D9"/>
</mask>
<g mask="url(#mask0_882_1762)">
<path id="search_2" d="M19.7384 20.7923L13.4577 14.5116C12.9577 14.9244 12.3827 15.2475 11.7327 15.4808C11.0827 15.7141 10.4102 15.8308 9.71536 15.8308C8.00619 15.8308 6.55967 15.239 5.37581 14.0554C4.19194 12.8719 3.60001 11.4257 3.60001 9.71702C3.60001 8.00829 4.19179 6.56161 5.37536 5.377C6.55892 4.1924 8.00507 3.6001 9.71381 3.6001C11.4225 3.6001 12.8692 4.19203 14.0538 5.3759C15.2384 6.55977 15.8307 8.00628 15.8307 9.71545C15.8307 10.4295 15.7109 11.1116 15.4711 11.7616C15.2314 12.4116 14.9115 12.977 14.5115 13.4577L20.7923 19.7385L19.7384 20.7923ZM9.71536 14.3308C11.0038 14.3308 12.0952 13.8837 12.9894 12.9895C13.8836 12.0953 14.3308 11.0039 14.3308 9.71545C14.3308 8.42698 13.8836 7.33563 12.9894 6.4414C12.0952 5.54717 11.0038 5.10005 9.71536 5.10005C8.42689 5.10005 7.33554 5.54717 6.44131 6.4414C5.54709 7.33563 5.09998 8.42698 5.09998 9.71545C5.09998 11.0039 5.54709 12.0953 6.44131 12.9895C7.33554 13.8837 8.42689 14.3308 9.71536 14.3308Z" fill="white"/>
</g>
</g>
</svg>
